<?xml version="1.0" encoding="UTF-8"?>
<!DOCTYPE svg PUBLIC "-//W3C//DTD SVG 1.1//EN" "http://www.w3.org/Graphics/SVG/1.1/DTD/svg11.dtd">
<!-- Creator: CorelDRAW 2020 (64-Bit) -->
<svg xmlns="http://www.w3.org/2000/svg" xml:space="preserve" width="208.5mm" height="261.151mm" version="1.1" style="shape-rendering:geometricPrecision; text-rendering:geometricPrecision; image-rendering:optimizeQuality; fill-rule:evenodd; clip-rule:evenodd"
viewBox="0 0 21205.98 26560.97"
 xmlns:xlink="http://www.w3.org/1999/xlink"
 xmlns:xodm="http://www.corel.com/coreldraw/odm/2003">
 <defs>
  <style type="text/css">
   <![CDATA[
    .fil2 {fill:#17815E;fill-rule:nonzero}
    .fil1 {fill:white;fill-rule:nonzero}
    .fil0 {fill:black;fill-rule:nonzero;fill-opacity:0.498039}
    .fil6 {fill:url(#id0)}
    .fil3 {fill:url(#id1);fill-rule:nonzero}
    .fil5 {fill:url(#id2);fill-rule:nonzero}
    .fil4 {fill:url(#id3);fill-rule:nonzero}
   ]]>
  </style>
  <linearGradient id="id0" gradientUnits="userSpaceOnUse" x1="3940.28" y1="5200.18" x2="18119.15" y2="17889.36">
   <stop offset="0" style="stop-opacity:1; stop-color:#17815E"/>
   <stop offset="1" style="stop-opacity:1; stop-color:#7BDBB8"/>
  </linearGradient>
  <linearGradient id="id1" gradientUnits="userSpaceOnUse" x1="151.11" y1="8491.15" x2="16320.04" y2="17539.09">
   <stop offset="0" style="stop-opacity:1; stop-color:#EBF0D0"/>
   <stop offset="1" style="stop-opacity:1; stop-color:#FFFFEB"/>
  </linearGradient>
  <linearGradient id="id2" gradientUnits="userSpaceOnUse" xlink:href="#id0" x1="1946.9" y1="3797.63" x2="23853.01" y2="18442.65">
  </linearGradient>
  <linearGradient id="id3" gradientUnits="userSpaceOnUse" xlink:href="#id0" x1="22455.61" y1="19149.26" x2="4412.23" y2="3928.45">
  </linearGradient>
 </defs>
 <g id="Layer_x0020_1">
  <metadata id="CorelCorpID_0Corel-Layer"/>
  <g id="_740538160">
   <path id="path4507" class="fil0" d="M3223.7 809.13l15564.49 0c1338.84,0 2417.78,993.32 2417.78,2227.19l0 21297.46c0,1233.3 -1078.93,2227.19 -2417.78,2227.19l-15564.49 0c-1339.45,0 -2417.79,-993.88 -2417.79,-2227.19l0 -21297.46c0,-1233.86 1078.33,-2227.19 2417.79,-2227.19z"/>
   <path id="path4509" class="fil1" d="M2417.78 0l15564.49 0c1338.84,0 2417.79,993.32 2417.79,2227.19l0 21297.46c0,1233.3 -1078.94,2227.19 -2417.79,2227.19l-15564.49 0c-1339.44,0 -2417.78,-993.88 -2417.78,-2227.19l0 -21297.46c0,-1233.86 1078.33,-2227.19 2417.78,-2227.19z"/>
   <path id="path4511" class="fil2" d="M2720 278.39l15564.49 0c1338.84,0 2417.79,993.33 2417.79,2227.19l0 21297.47c0,1233.3 -1078.94,2227.19 -2417.79,2227.19l-15564.49 0c-1339.44,0 -2417.79,-993.88 -2417.79,-2227.19l0 -21297.47c0,-1233.85 1078.34,-2227.19 2417.79,-2227.19z"/>
   <path id="path4513" class="fil3" d="M2568.89 139.2l15564.48 0c1338.85,0 2417.79,993.32 2417.79,2227.19l0 21297.46c0,1233.3 -1078.93,2227.19 -2417.79,2227.19l-15564.48 0c-1339.45,0 -2417.79,-993.88 -2417.79,-2227.19l0 -21297.46c0,-1233.86 1078.33,-2227.19 2417.79,-2227.19z"/>
   <path id="path4515" class="fil4" d="M3198.57 1252.79l14266.89 0c1228.53,0 2216.8,910.5 2216.8,2041.63l0 19522.68c0,1130.29 -988.27,2040.66 -2216.8,2040.66l-14266.89 0c-1227.93,0 -2216.35,-910.36 -2216.35,-2040.66l0 -19522.68c0,-1131.54 988.42,-2042.05 2216.35,-2042.05l0 0.42z"/>
   <path id="path4517" class="fil5" d="M3196.92 1165.79c-1278.56,0 -2309.14,949.34 -2309.14,2127.11l0 19522.67c0,1177.63 1030.58,2131.14 2309.14,2131.14l14270.07 0c1278.4,0 2310.5,-953.52 2310.5,-2131.14l0 -19522.67c0,-1178.32 -1032.1,-2127.66 -2310.5,-2127.66l-14270.07 0 0 0.55zm0 174l14270.07 0c1177.16,0 2120.09,868.74 2120.09,1953.11l0 19522.67c0,1084.36 -942.93,1957.14 -2120.09,1957.14l-14270.07 0c-1177.16,0 -2120.25,-872.78 -2120.25,-1957.14l0 -19522.67c0,-1084.92 943.09,-1953.67 2120.25,-1953.67l0 0.56z"/>
   <path id="path4078" class="fil6" d="M5728.02 2818.78c-865.25,0 -1567.78,976.21 -1567.78,2179.3 0,1024.92 1424.83,2748.07 1369.52,3566.98 -457.71,234.14 -1871.21,-1922.61 -2601.99,-1922.61 -865.26,0 -1567.78,976.2 -1567.78,2179.3 0,1203.1 702.51,2179.3 1567.78,2179.3 750.43,0 2036.23,-2160.93 2601.99,-1966.2 10.58,279.38 -20.24,2855.12 -179.51,3040.67 -344.38,401.03 -779.13,374.16 -779.13,374.16l9.37 439.31 2276.19 -13.08 9.52 -439.31c0,0 -430.06,31.32 -774.59,-369.72 -158.37,-184.58 -230.14,-2926.38 -231.35,-3014.64l14.2 0 0 4.31c553.98,-191.26 1885.12,1983.59 2630.25,1983.59 865.26,0 1567.78,-976.2 1567.78,-2179.29 0,-1203.11 -702.51,-2179.3 -1567.78,-2179.3 -727.76,0 -2046.2,2124.45 -2625.56,1905.35 8.16,-839.23 1416.67,-2565.02 1416.67,-3588.83 0,-1203.1 -702.52,-2179.3 -1567.79,-2179.3zm9005.35 543.72c-1338.85,2466.33 -2316.55,3739.73 -4330.26,5098.17 1905.67,1342.15 3249.36,2729.82 4368.03,4972.04 998.85,-2130.02 2221.34,-3717.17 4344.46,-5037.33 -2135.2,-1001.67 -3369.79,-2591.05 -4382.23,-5032.88zm-11087.82 10244.22c-259.76,1.68 -543.39,63.34 -859.37,196.27 -3444.59,2465.21 1198.47,6442.13 3159.14,9856.69l56.66 16.7c2154.7,-3731.93 6255.42,-7838.3 3121.36,-9873.39 -2482.91,-1040.93 -3145.38,2419.28 -3168.65,2544.55 -20.25,-109.97 -527.83,-2751.82 -2309.14,-2740.83zm11163.36 21.71c-1598.01,2340.5 -6501.57,6329.95 -3395.32,7560.46 1885.56,566.54 2783.92,-594.38 3163.97,-1361.36l75.55 0c-2.87,143.37 -74.2,2964.93 -273.96,3131.98 -438.23,366.1 -991.6,339.64 -991.6,339.64l9.37 399.51 2904.96 -12.53 9.07 -392.54c0,0 -548.54,23.67 -986.76,-342.43 -200.97,-168.44 -276.53,-2985.82 -279.55,-3127.81l33.25 0c306.75,626.4 1471.83,1925.13 2753.25,1430.97 3746.05,-1386.42 -1769.51,-5334.11 -3022.23,-7625.89z"/>
  </g>
 </g>
</svg>
